<svg width="17" height="30" viewBox="0 0 17 30" fill="none" xmlns="http://www.w3.org/2000/svg">
                     <path
                        d="M7.392 29.504H9.856V26.784C14.144 26.304 16.896 23.616 16.896 19.712C16.896 16.32 15.04 14.336 10.944 13.44L9.856 13.184V6.304C11.52 6.656 12.48 7.776 12.544 9.504H16.512C16.384 5.664 13.888 3.136 9.856 2.72V0H7.392V2.72C3.136 3.168 0.32 5.856 0.32 9.6C0.32 13.12 2.336 15.36 6.368 16.224L7.392 16.448V23.264C5.312 23.008 4.128 21.856 4.096 20.032H0C0.096 23.936 2.944 26.528 7.392 26.848V29.504ZM7.264 12.608C5.216 12.16 4.32 11.168 4.32 9.472C4.32 7.744 5.472 6.592 7.392 6.272V12.64L7.264 12.608ZM10.08 17.024C12 17.44 12.928 18.432 12.928 20.064C12.928 21.696 11.776 22.816 9.856 23.2V16.96L10.08 17.024Z"
                        fill="#212121" />
                  </svg>